<svg width="30" height="30" viewBox="0 0 30 30" fill="none" xmlns="http://www.w3.org/2000/svg">
<g clip-path="url(#clip0_723_9470)">
<rect x="29.502" y="12.9141" width="16.5862" height="19.6897" rx="1.5" transform="rotate(90 29.502 12.9141)" stroke="#C64646"/>
<path d="M23.7988 20.1723V18.3619M23.7988 18.3619V16.293H25.8678C26.4391 16.293 26.9023 16.7561 26.9023 17.3275V17.3275C26.9023 17.8988 26.4391 18.3619 25.8678 18.3619H23.7988Z" stroke="#C64646"/>
<path d="M0.5 2C0.5 1.17157 1.17157 0.5 2 0.5H11.1722L16.569 5.89676V18.6897C16.569 19.5181 15.8974 20.1897 15.069 20.1897H2C1.17157 20.1897 0.5 19.5181 0.5 18.6897V2Z" fill="#F9ECEC" stroke="#C64646"/>
<rect x="3.52148" y="13.9648" width="4.13793" height="1.03448" fill="#C64646"/>
<path d="M2.55469 22.7585V26.3792H6.95124M6.95124 26.3792L5.14089 24.5689M6.95124 26.3792L5.14089 28.1896" stroke="#C64646"/>
<rect x="3.52148" y="16.0352" width="8.7931" height="1.03448" fill="#C64646"/>
<rect x="8.69336" y="13.9648" width="1.03448" height="1.03448" fill="#C64646"/>
<rect x="12.9355" y="24.8281" width="1.03448" height="2.58621" fill="#C64646"/>
<rect x="18.1074" y="25.3457" width="1.03448" height="2.06897" fill="#C64646"/>
<rect x="15.5215" y="22.7578" width="1.03448" height="4.65517" fill="#C64646"/>
<path fill-rule="evenodd" clip-rule="evenodd" d="M27.4175 24.5691C27.4175 22.7123 25.9122 21.207 24.0554 21.207V24.5691H27.4175Z" fill="#F9ECEC"/>
<path d="M26.9175 24.5691C26.9175 26.1498 25.6361 27.4312 24.0554 27.4312C22.4748 27.4312 21.1934 26.1498 21.1934 24.5691C21.1934 22.9884 22.4748 21.707 24.0554 21.707C25.6361 21.707 26.9175 22.9884 26.9175 24.5691Z" stroke="#C64646"/>
<line x1="24.5" y1="22" x2="24.5" y2="25" stroke="#C64646"/>
<line x1="24" y1="24.5" x2="27" y2="24.5" stroke="#C64646"/>
</g>
<defs>
<clipPath id="clip0_723_9470">
<rect width="30" height="30" fill="white"/>
</clipPath>
</defs>
</svg>
