<svg width="30" height="30" viewBox="0 0 30 30" fill="none" xmlns="http://www.w3.org/2000/svg">
<g clip-path="url(#clip0_522_9502)">
<rect x="12.5" y="9.07227" width="17" height="20.4277" rx="1.5" stroke="#3E78E7"/>
<rect x="22.0605" y="23.0352" width="4.23529" height="1.07138" fill="#3E78E7"/>
<rect x="19.9414" y="25.7148" width="6.35294" height="1.07138" fill="#3E78E7"/>
<path d="M22.1693 18.7498L20.999 15H21.8767L23.047 18.7498H22.1693Z" fill="#3E78E7"/>
<path d="M24.5099 18.7498L23.3396 15H24.2173L25.3876 18.7498H24.5099Z" fill="#3E78E7"/>
<path d="M23.047 18.7498L24.2173 15H23.3396L22.1693 18.7498H23.047Z" fill="#3E78E7"/>
<path d="M25.3876 18.7498L26.5578 15H25.6801L24.5099 18.7498H25.3876Z" fill="#3E78E7"/>
<path d="M0.5 2C0.5 1.17157 1.17157 0.5 2 0.5H11.5781L17.1778 6.09972V19.4277C17.1778 20.2561 16.5063 20.9277 15.6778 20.9277H2C1.17157 20.9277 0.5 20.2561 0.5 19.4277V2Z" fill="#EAF0FA" stroke="#3E78E7"/>
<rect x="3.74902" y="14.4624" width="4.28553" height="1.07138" fill="#3E78E7"/>
<path d="M4.81934 23.5693V27.3192H9.37272M9.37272 27.3192L7.49779 25.4443M9.37272 27.3192L7.49779 29.1941" stroke="#3E78E7"/>
<rect x="3.74902" y="16.6055" width="9.10676" height="1.07138" fill="#3E78E7"/>
<rect x="9.10938" y="14.4624" width="1.07138" height="1.07138" fill="#3E78E7"/>
</g>
<defs>
<clipPath id="clip0_522_9502">
<rect width="30" height="30" fill="white"/>
</clipPath>
</defs>
</svg>
