<svg width="30" height="30" viewBox="0 0 30 30" fill="none" xmlns="http://www.w3.org/2000/svg">
<g clip-path="url(#clip0_721_9412)">
<mask id="mask0_721_9412" style="mask-type:luminance" maskUnits="userSpaceOnUse" x="0" y="0" width="30" height="30">
<path d="M30 0H0V30H30V0Z" fill="white"/>
</mask>
<g mask="url(#mask0_721_9412)">
<path d="M11.75 26.4472L16.5135 21.6837C17.4898 20.7074 19.0727 20.7074 20.049 21.6837L21.2129 22.8476M11.75 26.4472V16.0605C11.75 15.2321 12.4216 14.5605 13.25 14.5605H28C28.8284 14.5605 29.5 15.2321 29.5 16.0605V25.5097M11.75 26.4472V27.998C11.75 28.8265 12.4216 29.498 13.25 29.498H28C28.8284 29.498 29.5 28.8265 29.5 27.998V25.5097M29.5 25.5097L26.6115 22.6212C25.6352 21.6449 24.0523 21.6449 23.076 22.6212L19.8027 25.8945" stroke="#C64646"/>
<path d="M11.2852 5.89261V6.39261H11.7852H17.1778V19.4277C17.1778 20.2561 16.5063 20.9277 15.6778 20.9277H2C1.17157 20.9277 0.5 20.2561 0.5 19.4277V2C0.5 1.17157 1.17157 0.5 2 0.5H11.2852V5.89261Z" fill="#F9ECEC"/>
<path d="M17.1778 6.39261H11.7852H11.2852V5.89261V0.5M17.1778 6.39261V19.4277C17.1778 20.2561 16.5063 20.9277 15.6778 20.9277H2C1.17157 20.9277 0.5 20.2561 0.5 19.4277V2C0.5 1.17157 1.17157 0.5 2 0.5H11.2852M17.1778 6.39261L11.2852 0.5" stroke="#C64646"/>
<path d="M8.03553 14.4629H3.75V15.5343H8.03553V14.4629Z" fill="#C64646"/>
<path d="M12.8568 16.6055H3.75V17.6768H12.8568V16.6055Z" fill="#C64646"/>
<path d="M10.1808 14.4629H9.10938V15.5343H10.1808V14.4629Z" fill="#C64646"/>
<path d="M4.21875 23.4355V26.7168H8.20312M8.20312 26.7168L6.5625 25.0762M8.20312 26.7168L6.5625 28.3574" stroke="#C64646"/>
<path d="M25.0781 19.1855C25.7081 19.1855 26.2187 18.6749 26.2187 18.0449C26.2187 17.415 25.7081 16.9043 25.0781 16.9043C24.4482 16.9043 23.9375 17.415 23.9375 18.0449C23.9375 18.6749 24.4482 19.1855 25.0781 19.1855Z" fill="#F9ECEC" stroke="#C64646"/>
</g>
</g>
<defs>
<clipPath id="clip0_721_9412">
<rect width="30" height="30" fill="white"/>
</clipPath>
</defs>
</svg>
