<svg width="30" height="30" viewBox="0 0 30 30" fill="none" xmlns="http://www.w3.org/2000/svg">
<g clip-path="url(#clip0_2545_17456)">
<path d="M23 29H2C0.89543 29 0 28.1046 0 27V2C0 0.89543 0.895431 0 2 0H16.8191L24 7.57257V28C24 28.5523 23.5523 29 23 29Z" fill="#EFF6EE"/>
<path fill-rule="evenodd" clip-rule="evenodd" d="M16.5 8V8.5H17H24V9.66797H25V8.5V8L24.5 7.5L17.5 0.5L17 0H16.5H2C0.895431 0 0 0.89543 0 2V28C0 29.1046 0.89543 30 2 30H23C24.1046 30 25 29.1046 25 28V24.1685H24V28C24 28.5523 23.5523 29 23 29H2C1.44772 29 1 28.5523 1 28V2C1 1.44772 1.44772 1 2 1H16.5V8ZM23.0858 7.5L17.5 1.91421V7.5H23.0858Z" fill="#65A062"/>
<circle cx="24.5" cy="16.5" r="5.5" fill="#65A062"/>
<path fill-rule="evenodd" clip-rule="evenodd" d="M25 13H24V16H21V17H24V20H25V17H28V16H25V13Z" fill="white"/>
<path d="M1 7H13.5C13.7761 7 14 7.22386 14 7.5V12.5C14 12.7761 13.7761 13 13.5 13H1V7Z" fill="#65A062"/>
<path d="M4.52777 8.60497C4.89558 8.60649 5.16366 8.68298 5.332 8.83444C5.50034 8.9859 5.58395 9.19744 5.58283 9.46908C5.58232 9.59255 5.56234 9.71009 5.52289 9.8217C5.48474 9.93202 5.42195 10.0299 5.33452 10.1153C5.2471 10.1994 5.1318 10.2659 4.98863 10.3147C4.84676 10.3635 4.67185 10.3875 4.4639 10.3866L4.15977 10.3854L4.15537 11.4537L3.68748 11.4518L3.69922 8.60156L4.52777 8.60497ZM4.49498 8.9928L4.16551 8.99145L4.16138 9.99546L4.41676 9.99651C4.56363 9.99711 4.68847 9.98073 4.79128 9.94736C4.8941 9.91269 4.97231 9.85778 5.02591 9.78262C5.07951 9.70745 5.10656 9.60814 5.10707 9.48467C5.10775 9.3196 5.05822 9.19658 4.95847 9.11558C4.86003 9.0346 4.70553 8.99367 4.49498 8.9928Z" fill="white"/>
<path d="M8.46398 10.019C8.46265 10.34 8.40176 10.6082 8.2813 10.8234C8.16085 11.0374 7.98667 11.1985 7.75878 11.3067C7.53089 11.4137 7.25643 11.4665 6.93541 11.4652L6.1439 11.4619L6.15563 8.61168L7.03292 8.61529C7.32795 8.6165 7.58247 8.67084 7.79648 8.7783C8.0105 8.88446 8.17556 9.04175 8.29168 9.25018C8.4078 9.45732 8.46523 9.71359 8.46398 10.019ZM7.97654 10.0307C7.9775 9.79672 7.94125 9.60421 7.86779 9.45314C7.79563 9.30208 7.68821 9.18986 7.54555 9.11649C7.40419 9.04182 7.22953 9.00406 7.02158 9.00321L6.62192 9.00156L6.6134 11.072L6.94482 11.0733C7.28924 11.0748 7.54694 10.9881 7.71792 10.8133C7.8889 10.6386 7.97511 10.3777 7.97654 10.0307Z" fill="white"/>
<path d="M9.53609 11.4759L9.0721 11.474L9.08384 8.62373L10.6942 8.63036L10.6925 9.02417L9.5462 9.01945L9.54254 9.90844L10.6148 9.91285L10.6132 10.3047L9.54093 10.3003L9.53609 11.4759Z" fill="white"/>
<path fill-rule="evenodd" clip-rule="evenodd" d="M15 19L8 19L8 18L15 18L15 19Z" fill="#65A062"/>
<path fill-rule="evenodd" clip-rule="evenodd" d="M6 19L4 19L4 18L6 18L6 19Z" fill="#65A062"/>
<path fill-rule="evenodd" clip-rule="evenodd" d="M17 24H4V23H17V24Z" fill="#65A062"/>
</g>
<defs>
<clipPath id="clip0_2545_17456">
<rect width="30" height="30" fill="white"/>
</clipPath>
</defs>
</svg>
