<svg width="30" height="30" viewBox="0 0 30 30" fill="none" xmlns="http://www.w3.org/2000/svg">
<g clip-path="url(#clip0_2545_17429)">
<path d="M23 29H2C0.89543 29 0 28.1046 0 27V2C0 0.89543 0.895431 0 2 0H16.8191L24 7.57257V28C24 28.5523 23.5523 29 23 29Z" fill="#EAF0FA"/>
<path fill-rule="evenodd" clip-rule="evenodd" d="M16.5 8V8.5H17H24V9.66797H25V8.5V8L24.5 7.5L17.5 0.5L17 0H16.5H2C0.895431 0 0 0.89543 0 2V28C0 29.1046 0.89543 30 2 30H23C24.1046 30 25 29.1046 25 28V24.1685H24V28C24 28.5523 23.5523 29 23 29H2C1.44772 29 1 28.5523 1 28V2C1 1.44772 1.44772 1 2 1H16.5V8ZM23.0858 7.5L17.5 1.91421V7.5H23.0858Z" fill="#2E64C9"/>
<path d="M16 12.5H18.5V10V22H28M30 22H28M28 22V24" stroke="#2E64C9"/>
<path d="M20.5 12.5H28V20" stroke="#2E64C9"/>
<rect x="3" y="18" width="8" height="1" fill="#2E64C9"/>
<rect x="3" y="21" width="10" height="1" fill="#2E64C9"/>
<rect x="3" y="24" width="13" height="1" fill="#2E64C9"/>
<path d="M1 5H13.5C13.7761 5 14 5.22386 14 5.5V10.5C14 10.7761 13.7761 11 13.5 11H1V5Z" fill="#2E64C9"/>
<path d="M4.52777 6.60497C4.89558 6.60649 5.16366 6.68298 5.332 6.83444C5.50034 6.9859 5.58395 7.19744 5.58283 7.46908C5.58232 7.59255 5.56234 7.71009 5.52289 7.8217C5.48474 7.93202 5.42195 8.02989 5.33452 8.11531C5.2471 8.19943 5.1318 8.26589 4.98863 8.31469C4.84676 8.3635 4.67185 8.38747 4.4639 8.38662L4.15977 8.38536L4.15537 9.45371L3.68748 9.45178L3.69922 6.60156L4.52777 6.60497ZM4.49498 6.9928L4.16551 6.99145L4.16138 7.99546L4.41676 7.99651C4.56363 7.99711 4.68847 7.98073 4.79128 7.94736C4.8941 7.91269 4.97231 7.85778 5.02591 7.78262C5.07951 7.70745 5.10656 7.60814 5.10707 7.48467C5.10775 7.3196 5.05822 7.19658 4.95847 7.11558C4.86003 7.0346 4.70553 6.99367 4.49498 6.9928Z" fill="white"/>
<path d="M8.46398 8.01902C8.46265 8.34005 8.40176 8.60819 8.2813 8.82344C8.16085 9.0374 7.98667 9.1985 7.75878 9.30673C7.53089 9.41367 7.25643 9.46648 6.93541 9.46516L6.1439 9.4619L6.15563 6.61168L7.03292 6.61529C7.32795 6.6165 7.58247 6.67084 7.79648 6.7783C8.0105 6.88446 8.17556 7.04175 8.29168 7.25018C8.4078 7.45732 8.46523 7.71359 8.46398 8.01902ZM7.97654 8.03066C7.9775 7.79672 7.94125 7.60421 7.86779 7.45314C7.79563 7.30208 7.68821 7.18986 7.54555 7.11649C7.40419 7.04182 7.22953 7.00406 7.02158 7.00321L6.62192 7.00156L6.6134 9.07197L6.94482 9.07333C7.28924 9.07475 7.54694 8.98808 7.71792 8.81332C7.8889 8.63857 7.97511 8.37768 7.97654 8.03066Z" fill="white"/>
<path d="M9.53609 9.47587L9.0721 9.47396L9.08384 6.62373L10.6942 6.63036L10.6925 7.02417L9.5462 7.01945L9.54254 7.90844L10.6148 7.91285L10.6132 8.30471L9.54093 8.3003L9.53609 9.47587Z" fill="white"/>
</g>
<defs>
<clipPath id="clip0_2545_17429">
<rect width="30" height="30" fill="white"/>
</clipPath>
</defs>
</svg>
