<svg width="30" height="30" viewBox="0 0 30 30" fill="none" xmlns="http://www.w3.org/2000/svg">
<g clip-path="url(#clip0_522_9848)">
<path d="M2 29.5C1.17157 29.5 0.5 28.8284 0.5 28L0.5 18.294L6.16368 12.6303H19.6603C20.4887 12.6303 21.1603 13.3018 21.1603 14.1303V28C21.1603 28.8284 20.4887 29.5 19.6603 29.5H2Z" fill="white" stroke="#C64646"/>
<rect x="14.6182" y="26.209" width="4.33206" height="1.08301" transform="rotate(-90 14.6182 26.209)" fill="#C64646"/>
<rect x="16.7861" y="26.209" width="9.20562" height="1.08301" transform="rotate(-90 16.7861 26.209)" fill="#C64646"/>
<rect x="14.6182" y="20.7915" width="1.08301" height="1.08301" transform="rotate(-90 14.6182 20.7915)" fill="#C64646"/>
<path d="M12.6318 2C12.6318 1.17157 13.3034 0.5 14.1318 0.5H23.8379L29.5016 6.16368V19.6603C29.5016 20.4887 28.83 21.1603 28.0016 21.1603H14.1318C13.3034 21.1603 12.6318 20.4887 12.6318 19.6603V2Z" fill="#F9ECEC" stroke="#C64646"/>
<rect x="15.9229" y="14.6201" width="4.33206" height="1.08301" fill="#C64646"/>
<rect x="15.9229" y="16.7856" width="9.20562" height="1.08301" fill="#C64646"/>
<rect x="21.3398" y="14.6201" width="1.08301" height="1.08301" fill="#C64646"/>
<path d="M8.34766 3.92871C4.84279 3.44571 3.56539 5.31049 3.01339 9.31606M3.01339 9.31606L5.72387 8.15897M3.01339 9.31606L1.28661 7.03728" stroke="#C64545"/>
</g>
<defs>
<clipPath id="clip0_522_9848">
<rect width="30" height="30" fill="white"/>
</clipPath>
</defs>
</svg>
