<svg width="30" height="30" viewBox="0 0 30 30" fill="none" xmlns="http://www.w3.org/2000/svg">
<path d="M25.5 29H4.5C3.39543 29 2.5 28.1046 2.5 27V2C2.5 0.89543 3.39543 0 4.5 0H19.3191L26.5 7.57257V28C26.5 28.5523 26.0523 29 25.5 29Z" fill="#F9ECEC"/>
<path d="M25.5 29.5H4.5C3.67157 29.5 3 28.8284 3 28V2C3 1.17157 3.67157 0.5 4.5 0.5H19.2929L27 8.20711V28C27 28.8284 26.3284 29.5 25.5 29.5Z" stroke="#C64545"/>
<path d="M7.36035 12.2695H22.4955" stroke="#C64545" stroke-linecap="round"/>
<path d="M11.8994 12.2703V11C11.8994 10.4477 12.3471 10 12.8994 10H16.9535C17.5058 10 17.9535 10.4477 17.9535 11V11.8919" stroke="#C64545"/>
<path d="M9.63086 14.1621V22.9999C9.63086 23.5522 10.0786 23.9999 10.6309 23.9999H18.8471C19.3994 23.9999 19.8471 23.5522 19.8471 22.9999V14.1621" stroke="#C64545" stroke-linecap="round"/>
<path d="M13.416 14.541V21.3518" stroke="#C64545" stroke-linecap="round"/>
<path d="M16.4434 14.541V21.3518" stroke="#C64545" stroke-linecap="round"/>
</svg>
