<svg width="30" height="30" viewBox="0 0 30 30" fill="none" xmlns="http://www.w3.org/2000/svg">
<g clip-path="url(#clip0_522_8167)">
<path d="M23 29H2C0.89543 29 0 28.1046 0 27V2C0 0.89543 0.895431 0 2 0H16.8191L24 7.57257V28C24 28.5523 23.5523 29 23 29Z" fill="#EFF6EE"/>
<path d="M9.40618 8.51562C9.61328 8.51562 9.78118 8.68352 9.78118 8.89062V9.84492C9.78118 10.052 9.61328 10.2199 9.40618 10.2199H8.28706V23.7832H9.40618C9.61328 23.7832 9.78118 23.9511 9.78118 24.1582V25.1125C9.78118 25.3196 9.61328 25.4875 9.40618 25.4875H7.92183L7.39059 25.1949L6.85935 25.4875H5.375C5.16789 25.4875 5 25.3196 5 25.1125V24.1582C5 23.9511 5.16789 23.7832 5.375 23.7832H6.49412V10.2199H5.375C5.16789 10.2199 5 10.052 5 9.84492V8.89062C5 8.68352 5.16789 8.51562 5.375 8.51562H6.85935L7.39059 8.80824L7.92183 8.51562H9.40618Z" fill="#65A062"/>
<path d="M15.5 24.5L15.5 22.1037L26.8966 10.7071L29.2929 13.1034L29.6464 12.7499L29.2929 13.1034L17.8963 24.5H15.5Z" stroke="#65A062"/>
<path fill-rule="evenodd" clip-rule="evenodd" d="M16.5 8V8.5H17H24V9.66797H25V8.5V8L24.5 7.5L17.5 0.5L17 0H16.5H2C0.895431 0 0 0.89543 0 2V28C0 29.1046 0.89543 30 2 30H23C24.1046 30 25 29.1046 25 28V24.1685H24V28C24 28.5523 23.5523 29 23 29H2C1.44772 29 1 28.5523 1 28V2C1 1.44772 1.44772 1 2 1H16.5V8ZM23.0858 7.5L17.5 1.91421V7.5H23.0858Z" fill="#65A062"/>
</g>
<defs>
<clipPath id="clip0_522_8167">
<rect width="30" height="30" fill="white"/>
</clipPath>
</defs>
</svg>
