<?xml version="1.0" encoding="UTF-8"?>
<svg version="1.1" xmlns="http://www.w3.org/2000/svg" width="512" height="512">
<path d="M0 0 C0.88534628 -0.00939143 1.77069257 -0.01878287 2.68286753 -0.02845889 C3.65133159 -0.03373149 4.61979566 -0.03900408 5.61760712 -0.04443645 C6.64978033 -0.05375767 7.68195354 -0.06307888 8.74540472 -0.07268256 C12.21511382 -0.10250312 15.68482963 -0.12504879 19.15459442 -0.1473875 C21.63814749 -0.16674473 24.12169849 -0.18636888 26.6052475 -0.20624065 C49.28102081 -0.37963544 71.95746589 -0.47339355 94.63375854 -0.54730988 C97.66837374 -0.55737761 100.70298824 -0.56762866 103.73760223 -0.57805157 C104.49180865 -0.58063379 105.24601508 -0.58321601 106.02307624 -0.58587649 C118.23036586 -0.62896811 130.43691093 -0.71737027 142.64379841 -0.82340149 C155.18709798 -0.9314477 167.73001143 -0.99375829 180.27376509 -1.0131647 C187.31254137 -1.02529538 194.3499439 -1.05785386 201.38825226 -1.14275837 C208.01405327 -1.2226706 214.6380502 -1.241289 221.264431 -1.21901798 C223.69123664 -1.22071798 226.11813072 -1.24285847 228.54452896 -1.28735638 C248.79077459 -1.63954763 248.79077459 -1.63954763 255.12151861 4.1911605 C257.45914951 6.72093828 259.50016788 9.4059096 261.5745163 12.15656757 C262.93312347 13.43477081 264.32809207 14.67650705 265.77080536 15.85896015 C270.21715677 19.65699848 274.31438672 23.77154983 278.4338913 27.91828632 C279.28052338 28.76637867 280.12715546 29.61447102 280.99944305 30.48826313 C283.29870551 32.79229335 285.59575795 35.09850027 287.8919754 37.40556431 C290.30974446 39.83339635 292.73082378 42.25792229 295.15166473 44.68269062 C301.81677257 51.35978268 308.47683058 58.04190418 315.13683319 64.72408772 C321.24655897 70.85405663 327.35737715 76.98292625 333.47227097 83.1077404 C335.8750594 85.51466932 338.27677012 87.92265321 340.67595673 90.3331728 C343.3534259 93.02266161 346.03396917 95.70905223 348.7151413 98.39484882 C349.49667572 99.18154957 350.27821014 99.96825031 351.08342743 100.77879047 C355.20543358 104.90118937 359.40832239 108.85512807 363.84300995 112.640378 C364.41440704 113.14072056 364.98580414 113.64106312 365.5745163 114.15656757 C366.09738458 114.55952043 366.62025287 114.9624733 367.15896565 115.37763685 C369.20887418 117.95376881 368.95174903 119.86902367 368.95483303 123.13564873 C368.96327297 124.39296069 368.97171291 125.65027265 368.98040861 126.94568497 C368.97461275 128.34878978 368.96853169 129.75189344 368.96219635 131.15499592 C368.96636661 132.6395152 368.97184242 134.12403129 368.97851616 135.60854143 C368.99303113 139.69848844 368.98870722 143.78823499 368.98134935 147.87819326 C368.97663461 152.28534543 368.98911276 156.69245316 368.99936676 161.09959126 C369.01659605 169.73933543 369.01738588 178.37900701 369.01215386 187.01876391 C369.00811701 194.0423563 369.00954995 201.06592719 369.01490211 208.08951855 C369.01565054 209.08813026 369.01639896 210.08674196 369.01717006 211.11561463 C369.01870151 213.14418973 369.02023986 215.17276481 369.02178503 217.20133989 C369.0355261 236.2435309 369.0300621 255.28568088 369.01859982 274.32787096 C369.00867546 291.74502104 369.02159146 309.16206476 369.04553401 326.57919843 C369.06992659 344.45840896 369.07953188 362.33756997 369.07288128 380.21679682 C369.06938817 390.25630752 369.07162672 400.29573651 369.08913231 410.33523464 C369.10385667 418.88599974 369.10448714 427.43662565 369.0870614 435.98738802 C369.07854914 440.34913382 369.07640708 444.71063102 369.09171295 449.07236385 C369.10556442 453.06922683 369.10079117 457.06562834 369.08147372 461.06246465 C369.07771462 462.50466852 369.08063311 463.9469094 369.09108537 465.38908029 C369.16854068 476.89915084 367.55574806 485.84922136 359.50811005 494.39875507 C353.348372 499.99851693 347.92397908 502.2782279 339.63859177 502.28799534 C338.41637271 502.29183648 337.19415366 502.29567763 335.93489766 502.29963517 C334.57659096 502.29885494 333.21828431 502.29797615 331.85997772 502.29700947 C330.41854611 502.29959319 328.97711521 502.30260637 327.5356853 502.30601287 C323.56961318 502.31408524 319.60355915 502.31587257 315.63747978 502.31661034 C311.36196024 502.31846047 307.08645009 502.3260076 302.81093597 502.33274555 C293.45969554 502.34633099 284.10845939 502.35235389 274.75721073 502.35675621 C268.91907727 502.35951822 263.08094546 502.3637555 257.24281311 502.36826038 C241.08103921 502.38045322 224.91926665 502.39075258 208.75748825 502.39413548 C207.72297729 502.39435504 206.68846634 502.39457461 205.62260656 502.39480083 C204.58561084 502.3950191 203.54861512 502.39523738 202.48019528 502.39546227 C200.37882312 502.39590574 198.27745096 502.39635231 196.1760788 502.39680195 C195.13372412 502.39702338 194.09136944 502.39724481 193.01742825 502.39747295 C176.12603351 502.4014213 159.2346819 502.41887639 142.34330383 502.44216147 C125.00422657 502.46587093 107.66517096 502.47833714 90.32607722 502.47950339 C80.58958382 502.48042037 70.85314663 502.48617843 61.1166687 502.50432301 C52.82610767 502.51971849 44.53562021 502.5248477 36.2450476 502.5165849 C32.0152167 502.51267647 27.78553398 502.51361739 23.55572128 502.52764225 C19.6818236 502.54036952 15.80818562 502.53919407 11.93428835 502.52705154 C10.53454155 502.5250925 9.13477642 502.52818256 7.73505536 502.5368959 C-4.27266137 502.60689863 -11.31817255 500.9650569 -20.21845245 492.57063007 C-26.18623055 486.0430427 -27.57751452 479.18511143 -27.55970478 470.60202312 C-27.56205701 469.83388206 -27.56440924 469.06574099 -27.56683275 468.27432293 C-27.57352076 465.68528287 -27.57306459 463.09629303 -27.57265472 460.50724506 C-27.57595347 458.63825963 -27.57967906 456.7692749 -27.5837962 454.90029109 C-27.59382306 449.75231904 -27.5975341 444.60435865 -27.60018551 439.45637822 C-27.60408651 433.9088248 -27.61366497 428.36128063 -27.62239838 422.8137331 C-27.64216819 409.41071358 -27.65222949 396.00769329 -27.66112617 382.60466284 C-27.66550807 376.29504563 -27.67087512 369.98542926 -27.67611504 363.67581272 C-27.69312755 342.70501545 -27.70764714 321.73421835 -27.71486378 300.76341534 C-27.71533853 299.40721392 -27.71581442 298.0510125 -27.71629144 296.69481108 C-27.71652782 296.0222595 -27.71676419 295.34970792 -27.71700773 294.65677599 C-27.71820892 291.24931719 -27.71942438 287.8418584 -27.72064972 284.4343996 C-27.72088987 283.75818016 -27.72113002 283.08196071 -27.72137745 282.38524977 C-27.72926986 260.46203236 -27.75270058 238.53886907 -27.78520566 216.6156753 C-27.8195114 193.43569415 -27.83921447 170.25574336 -27.84250802 147.07573283 C-27.84467436 134.44063951 -27.85344134 121.80562573 -27.87896919 109.17055607 C-27.90065707 98.41115867 -27.90873598 87.65186012 -27.89900241 76.89244334 C-27.89445225 71.40262704 -27.89638574 65.91301478 -27.91576385 60.42322636 C-27.93335681 55.39576381 -27.93242908 50.36865473 -27.91686656 45.34118862 C-27.91448463 43.52417973 -27.91884431 41.7071466 -27.93069521 39.89017479 C-28.00669159 27.46716814 -27.236703 17.34566399 -18.35907745 7.91438007 C-12.83947547 2.89656009 -7.50365768 0.06019247 0 0 Z " fill="#6378A2" transform="translate(85.42548370361328,4.843432426452637)"/>
<path d="M0 0 C0.76166977 0.00222061 1.52333954 0.00444122 2.30809021 0.00672913 C3.16890701 0.00680466 4.02972382 0.00688019 4.91662598 0.00695801 C5.8520372 0.01211929 6.78744843 0.01728058 7.75120544 0.02259827 C8.70422043 0.02401321 9.65723541 0.02542816 10.63912964 0.02688599 C13.69605085 0.032503 16.75289996 0.04505836 19.80979919 0.05775452 C21.87685543 0.06276733 23.94391281 0.06733061 26.01097107 0.07142639 C31.08977507 0.08247795 36.16852489 0.09975397 41.24729919 0.12025452 C50.27470946 24.99982065 58.63111699 50.09988675 66.95614815 75.22077656 C67.90069604 78.07055224 68.84621636 80.92000499 69.79170609 83.76946831 C70.44464563 85.7392773 71.09567548 87.70970966 71.74653625 89.6802063 C72.34922836 91.49795815 72.34922836 91.49795815 72.96409607 93.35243225 C73.34364441 94.5006546 73.72319275 95.64887695 74.11424255 96.83189392 C75.19652228 99.97288959 76.39237938 103.04905853 77.60862732 106.14002991 C80.12086125 113.08547084 78.33320189 117.3727856 75.3397522 123.82028198 C74.94185989 124.65790573 74.54396759 125.49552948 74.13401794 126.35853577 C73.72319473 127.23873886 73.31237152 128.11894196 72.88909912 129.02581787 C71.577889 131.83141835 70.25665462 134.63215617 68.93479919 137.43275452 C67.62593319 140.2236655 66.31912692 143.01553349 65.01263428 145.80755615 C64.20085865 147.54037901 63.38732213 149.27237848 62.57168579 151.00338745 C60.05800221 156.34475095 57.62256743 161.71591091 55.24729919 167.12025452 C54.58729919 166.79025452 53.92729919 166.46025452 53.24729919 166.12025452 C51.09318346 165.99948399 48.93537958 165.9427943 46.77806091 165.91493225 C46.11452606 165.90503265 45.45099121 165.89513306 44.76734924 165.88493347 C42.57059822 165.85330536 40.37382556 165.82855598 38.17698669 165.80384827 C36.65526258 165.78327986 35.1335442 165.76228342 33.61183167 165.74087524 C29.60385269 165.6856428 25.59582206 165.63623873 21.5877533 165.58802795 C17.49896133 165.53782147 13.41024452 165.48213096 9.32151794 165.42689514 C1.29684188 165.31929924 -6.727897 165.21785748 -14.75270081 165.12025452 C-14.94089386 165.89210587 -15.12908691 166.66395721 -15.32298279 167.459198 C-16.79821183 173.44550324 -18.34462592 179.37693834 -20.19801331 185.25697327 C-20.41335724 185.94789566 -20.62870117 186.63881805 -20.85057068 187.35067749 C-21.29756268 188.78179725 -21.74621671 190.21239897 -22.19654846 191.64247131 C-22.8882278 193.8412183 -23.57270388 196.04212476 -24.25660706 198.24330139 C-24.69498885 199.64382364 -25.13377525 201.04421932 -25.57301331 202.44447327 C-25.96762756 203.7034845 -26.36224182 204.96249573 -26.76881409 206.25965881 C-27.75270081 209.12025452 -27.75270081 209.12025452 -28.75270081 210.12025452 C-30.13430195 210.21303782 -31.52058118 210.23772494 -32.9052887 210.23377991 C-33.78612625 210.23370438 -34.66696381 210.23362885 -35.57449341 210.23355103 C-36.53177841 210.22838974 -37.48906342 210.22322845 -38.47535706 210.21791077 C-39.45056808 210.21649582 -40.42577911 210.21508087 -41.43054199 210.21362305 C-44.55879223 210.20800584 -47.68697204 210.19545044 -50.81520081 210.18275452 C-52.93043415 210.17774173 -55.04566861 210.17317844 -57.16090393 210.16908264 C-62.35819377 210.15803083 -67.55544226 210.14127598 -72.75270081 210.12025452 C-70.04646534 199.07548784 -66.22441093 188.36627105 -62.58473206 177.60462952 C-61.86480561 175.46858698 -61.14514063 173.3324563 -60.42572021 171.19624329 C-58.52606649 165.55811333 -56.6225057 159.92130978 -54.71821594 154.28474426 C-53.21312083 149.82761992 -51.71082377 145.36955524 -50.20868969 140.91143227 C-41.59831836 115.35774343 -32.93977303 89.82069578 -24.24099159 64.29697609 C-23.76834405 62.91012391 -23.76834405 62.91012391 -23.28614807 61.49525452 C-22.82438455 60.1403444 -22.82438455 60.1403444 -22.35329247 58.75806236 C-19.72761605 51.0514722 -17.114551 43.34067504 -14.50660706 35.62806702 C-13.78856579 33.50695374 -13.07046944 31.3858591 -12.35231018 29.26478577 C-11.30419185 26.16909252 -10.25711309 23.07306179 -9.2124176 19.97621155 C-8.1464919 16.81758323 -7.07692745 13.66020839 -6.00660706 10.50306702 C-5.69010696 9.5619809 -5.37360687 8.62089478 -5.04751587 7.65129089 C-4.75888168 6.80203033 -4.4702475 5.95276978 -4.17286682 5.07777405 C-3.92134354 4.33351166 -3.66982025 3.58924927 -3.41067505 2.82243347 C-2.38286547 0.16349073 -2.38286547 0.16349073 0 0 Z " fill="#FDFDFE" transform="translate(212.75270080566406,143.87974548339844)"/>
<path d="M0 0 C2.31 0 4.62 0 7 0 C16.531878 20.20186018 25.91192374 40.46617158 35.11083984 60.82177734 C36.74206215 64.43103904 38.3772954 68.03846954 40.01359558 71.64543152 C41.32221382 74.53062458 42.62942587 77.4164531 43.93624878 80.30245972 C44.5571919 81.67335501 45.1785436 83.04406532 45.80032349 84.4145813 C46.65739852 86.30437943 47.51255385 88.19503429 48.3671875 90.0859375 C48.85300293 91.1589209 49.33881836 92.2319043 49.83935547 93.33740234 C52.19624469 98.74426684 52.21781864 103.24974148 52.25 109.0625 C52.270625 109.96677734 52.29125 110.87105469 52.3125 111.80273438 C52.39019966 125.39046162 47.00762181 135.80157962 37.9375 145.75 C27.03374383 156.13186699 13.45073367 159.55779218 -1.22265625 159.30859375 C-14.72370129 158.20561282 -26.3209179 150.99504709 -34.9921875 140.81640625 C-41.35867612 131.88598155 -45.24930765 121.40800713 -45.4375 110.4375 C-45.47746094 109.17808594 -45.51742188 107.91867187 -45.55859375 106.62109375 C-44.83868978 95.68380271 -38.74195842 84.8787399 -34.06939697 75.15393066 C-32.40658988 71.69162091 -30.7673542 68.21813939 -29.125 64.74609375 C-28.7853421 64.02938507 -28.4456842 63.31267639 -28.09573364 62.57424927 C-24.35660164 54.67024305 -20.73312117 46.7144782 -17.125 38.75 C-16.81151611 38.05834747 -16.49803223 37.36669495 -16.17504883 36.65408325 C-14.38442882 32.70208711 -12.59697993 28.74866641 -10.81103516 24.79455566 C-9.57400567 22.05741381 -8.33361265 19.3217969 -7.09375 16.5859375 C-6.27056781 14.76574506 -5.44762831 12.94544283 -4.625 11.125 C-4.26164551 10.32288086 -3.89829102 9.52076172 -3.52392578 8.69433594 C-2.22893006 5.8192785 -0.99791212 2.99373635 0 0 Z " fill="#FEFEFE" transform="translate(323,211)"/>
<path d="M0 0 C5.01942638 4.2460717 9.88947468 8.60992175 14.67333984 13.11914062 C15.40507101 13.80876137 16.13680218 14.49838211 16.89070702 15.20890045 C26.17036716 24.00088147 35.19391527 33.04952101 44.2265625 42.09375 C46.11349217 43.98000392 48.00056913 45.86610958 49.88778687 47.7520752 C53.80735398 51.66984288 57.7248526 55.58966953 61.64111328 59.51074219 C66.14680329 64.02190496 70.65613018 68.52940834 75.16729414 73.03509665 C79.07869471 76.94194288 82.98812327 80.85075439 86.89594209 84.76118326 C89.21381789 87.08060472 91.53253261 89.39917451 93.85264969 91.71635437 C96.43105593 94.29220824 99.00621392 96.87126743 101.58056641 99.45117188 C102.33285522 100.20143646 103.08514404 100.95170105 103.86022949 101.72470093 C115.91242743 113.82485486 115.91242743 113.82485486 118 118 C105.89939572 118.06963415 93.79883944 118.12287941 81.69807529 118.15543652 C76.07867395 118.17106546 70.45941011 118.19225318 64.84008789 118.22631836 C59.41304619 118.25901051 53.98613643 118.27687385 48.55900383 118.28463173 C46.49264386 118.29015755 44.42629078 118.30094804 42.35998726 118.31719017 C39.45671332 118.33909536 36.55397857 118.34196145 33.65063477 118.34057617 C32.80402283 118.351362 31.95741089 118.36214783 31.08514404 118.3732605 C21.07845531 118.32188817 14.38662247 115.29271925 7.171875 108.4140625 C2.42985868 103.14326019 -0.12975221 97.05464978 -0.12025452 89.95037842 C-0.12162918 89.15394928 -0.12300385 88.35752014 -0.12442017 87.53695679 C-0.12082489 86.67236847 -0.11722961 85.80778015 -0.11352539 84.91699219 C-0.11367142 83.99957245 -0.11381744 83.08215271 -0.1139679 82.13693237 C-0.11327166 79.10688913 -0.10549275 76.07690749 -0.09765625 73.046875 C-0.09579104 70.94508905 -0.09436762 68.84330266 -0.09336853 66.74151611 C-0.08955144 61.21116942 -0.07972801 55.68084901 -0.06866455 50.1505127 C-0.05843309 44.50659541 -0.05386719 38.86267388 -0.04882812 33.21875 C-0.03810505 22.14582179 -0.02103829 11.07291308 0 0 Z " fill="#FDFDFE" transform="translate(334,5)"/>
<path d="M0 0 C2.63431057 2.63431057 3.03654888 4.90771747 4.10546875 8.48828125 C4.54767925 9.94772754 4.99095329 11.40685183 5.43505859 12.86572266 C5.68141052 13.67914124 5.92776245 14.49255981 6.18157959 15.33062744 C7.40091941 19.30764488 8.6674198 23.26929494 9.93191528 27.23214722 C11.36591956 31.7265482 12.78924753 36.22430924 14.21313477 40.72192383 C14.95254002 43.05278271 15.69444559 45.38284976 16.4387207 47.7121582 C17.52442692 51.11201438 18.60097917 54.51465217 19.67578125 57.91796875 C20.01007645 58.9575322 20.34437164 59.99709564 20.688797 61.06816101 C21.14508736 62.52171745 21.14508736 62.52171745 21.6105957 64.00463867 C21.87975296 64.85128586 22.14891022 65.69793304 22.42622375 66.57023621 C23 69 23 69 23 74 C7.82 74 -7.36 74 -23 74 C-20.75332852 62.76664258 -20.75332852 62.76664258 -18.828125 57.19921875 C-18.41385254 55.98476074 -17.99958008 54.77030273 -17.57275391 53.51904297 C-17.35661438 52.89334412 -17.14047485 52.26764526 -16.91778564 51.62298584 C-13.28907511 41.10566203 -9.89790353 30.55352713 -6.91821289 19.83178711 C-1.94603529 1.94603529 -1.94603529 1.94603529 0 0 Z " fill="#657AA3" transform="translate(232,202)"/>
</svg>
