<svg width="30" height="30" viewBox="0 0 30 30" fill="none" xmlns="http://www.w3.org/2000/svg">
<g clip-path="url(#clip0_522_9681)">
<path d="M4.73828 23.6875V27.3717H9.21197M9.21197 27.3717L7.36987 25.5296M9.21197 27.3717L7.36987 29.2138" stroke="#65A062"/>
<path d="M13.1289 10.9492C13.1289 10.1208 13.8005 9.44922 14.6289 9.44922H24.0008L29.4974 14.9458V28.0019C29.4974 28.8303 28.8258 29.5019 27.9974 29.5019H14.6289C13.8005 29.5019 13.1289 28.8303 13.1289 28.0019V10.9492Z" fill="#EFF6EE" stroke="#65A062"/>
<rect x="16.3125" y="23.6914" width="4.21053" height="1.05263" fill="#65A062"/>
<rect x="16.3125" y="25.7949" width="8.94739" height="1.05263" fill="#65A062"/>
<rect x="21.5781" y="23.6914" width="1.05263" height="1.05263" fill="#65A062"/>
<rect x="0.5" y="0.5" width="16.8948" height="20.0527" rx="1.5" fill="white" stroke="#65A062"/>
<path fill-rule="evenodd" clip-rule="evenodd" d="M2.61719 13.3312V12.332V12.3312V10.9102V9.91016H3.61719H8.45312H8.45929H9.45312H9.45929H14.2952H15.2952V10.9102V12.3312V12.332H15.2991V13.332V14.7531V15.7531H14.2991H9.45929H9.45703H8.45929H8.45703H3.61719H2.61719V14.7531V13.332V13.3312ZM9.45929 10.9102H14.2952V12.3312H9.45929V10.9102ZM8.45312 10.9102H3.61719V12.3312H8.45312V10.9102ZM8.45703 14.7531V13.332H3.61719V14.7531H8.45703ZM9.45929 14.7531H14.2991V13.332H9.45929V14.7531Z" fill="#65A062"/>
<path fill-rule="evenodd" clip-rule="evenodd" d="M2.61719 8.67105V7.67188V7.67105V6.25V5.25H3.61719H8.45312H8.45929H9.45312H9.45929H14.2952H15.2952V6.25V7.67105V7.67188H15.2991V8.67188V10.0929V11.0929H14.2991H9.45929H9.45703H8.45929H8.45703H3.61719H2.61719V10.0929V8.67188V8.67105ZM9.45929 6.25H14.2952V7.67105H9.45929V6.25ZM8.45312 6.25H3.61719V7.67105H8.45312V6.25ZM8.45703 10.0929V8.67188H3.61719V10.0929H8.45703ZM9.45929 10.0929H14.2991V8.67188H9.45929V10.0929Z" fill="#65A062"/>
</g>
<defs>
<clipPath id="clip0_522_9681">
<rect width="30" height="30" fill="white"/>
</clipPath>
</defs>
</svg>
