<svg width="30" height="30" viewBox="0 0 30 30" fill="none" xmlns="http://www.w3.org/2000/svg">
<path d="M25.5 29H4.5C3.39543 29 2.5 28.1046 2.5 27V2C2.5 0.89543 3.39543 0 4.5 0H19.3191L26.5 7.57257V28C26.5 28.5523 26.0523 29 25.5 29Z" fill="#EFF6EE"/>
<path d="M25.5 29.5H4.5C3.67157 29.5 3 28.8284 3 28V2C3 1.17157 3.67157 0.5 4.5 0.5H19.2929L27 8.20711V28C27 28.8284 26.3284 29.5 25.5 29.5Z" stroke="#65A062"/>
<path d="M19.7172 17.059H12.4803V13.928H12.4788C12.4998 12.5014 13.6094 11.3477 14.9712 11.3477C16.318 11.3477 17.417 12.4761 17.4605 13.8806C17.4605 14.2531 17.7473 14.5561 18.1031 14.5561C18.459 14.5561 18.7458 14.2547 18.7458 13.8806C18.7458 13.857 18.7443 13.8317 18.7428 13.808C18.7052 12.8075 18.3178 11.8733 17.6407 11.1615C16.9275 10.4119 15.9801 10 14.9727 10C13.9652 10 13.0178 10.4119 12.3047 11.1615C11.6005 11.9017 11.2101 12.8817 11.1996 13.9264V17.059H10.2372C9.83181 17.059 9.5 17.4078 9.5 17.8339V23.3132C9.5 23.7393 9.83181 24.088 10.2372 24.088H19.7202C20.1256 24.088 20.4574 23.7393 20.4574 23.3132V17.8355C20.4559 17.4078 20.1226 17.059 19.7172 17.059ZM15.6123 20.9507C15.6138 20.9649 15.6138 20.9775 15.6138 20.9917V22.0807C15.6138 22.4499 15.327 22.7514 14.9757 22.7514C14.6244 22.7514 14.3376 22.4499 14.3376 22.0807V20.9917C14.3376 20.9775 14.3376 20.9633 14.3391 20.9507C13.9442 20.7171 13.677 20.2721 13.677 19.7608C13.677 19.0064 14.258 18.3957 14.9757 18.3957C15.6934 18.3957 16.2744 19.0064 16.2744 19.7608C16.2744 20.2721 16.0087 20.7171 15.6123 20.9507Z" fill="#65A062"/>
</svg>
