<svg width="40" height="40" viewBox="0 0 40 40" fill="none" xmlns="http://www.w3.org/2000/svg">
<g clip-path="url(#clip0_13399_93529)">
<path d="M6.3125 31.5859V36.4982H12.2774M12.2774 36.4982L9.82128 34.0421M12.2774 36.4982L9.82128 38.9544" stroke="#65A062" stroke-width="2"/>
<path d="M32 19.5V20H32.5H38.9861V37.3411C38.9861 38.2615 38.2399 39.0077 37.3194 39.0077H19.4948C18.5743 39.0077 17.8281 38.2615 17.8281 37.3411V14.6042C17.8281 13.6837 18.5743 12.9375 19.4948 12.9375H32V19.5ZM32 12.9375L38.9861 20H32V12.9375Z" fill="#EFF6EE"/>
<path d="M32 20V19.5V12.9375M32 20H32.5H38.9861M32 20H38.9861M32 20V12.9375M38.9861 20V37.3411C38.9861 38.2615 38.2399 39.0077 37.3194 39.0077H19.4948C18.5743 39.0077 17.8281 38.2615 17.8281 37.3411V14.6042C17.8281 13.6837 18.5743 12.9375 19.4948 12.9375H32M38.9861 20L32 12.9375" stroke="#65A062" stroke-width="2"/>
<path d="M27.3562 31.5938H21.7422V32.9973H27.3562V31.5938Z" fill="#65A062"/>
<path d="M33.672 34.3984H21.7422V35.8019H33.672V34.3984Z" fill="#65A062"/>
<path d="M30.1691 31.5938H28.7656V32.9973H30.1691V31.5938Z" fill="#65A062"/>
<path d="M21.193 1H2.66667C1.74619 1 1 1.74619 1 2.66667V25.4035C1 26.324 1.74619 27.0702 2.66667 27.0702H21.193C22.1135 27.0702 22.8597 26.324 22.8597 25.4035V2.66667C22.8597 1.74619 22.1135 1 21.193 1Z" fill="white" stroke="#65A062" stroke-width="2"/>
<path fill-rule="evenodd" clip-rule="evenodd" d="M4.8177 17.7645V19.6578H11.2656V17.7645H4.8177ZM3.48438 17.7645V17.763V16.4312V16.4297V14.5365V13.2031H4.8177H11.2656H11.2738H12.599H12.6072H19.0551H20.3884V14.5365V16.4297V16.4312V17.763V17.7645V19.6578V20.9911H19.0551H12.6072H12.599H11.2738H11.2656H4.8177H3.48438V19.6578V17.7645ZM12.6072 14.5365H19.0551V16.4297H12.6072V14.5365ZM11.2656 14.5365H4.8177V16.4297H11.2656V14.5365ZM12.6072 17.7645H19.0551V19.6578H12.6072V17.7645Z" fill="#65A062"/>
<path fill-rule="evenodd" clip-rule="evenodd" d="M4.8177 11.5614V13.4546H11.2656V11.5614H4.8177ZM3.48438 11.5614V11.5599V10.2281V10.2266V8.33333V7H4.8177H11.2656H11.2738H12.599H12.6072H19.0551H20.3884V8.33333V10.2266V10.2281V11.5599V11.5614V13.4546V14.788H19.0551H12.6072H12.599H11.2738H11.2656H4.8177H3.48438V13.4546V11.5614ZM12.6072 8.33333H19.0551V10.2266H12.6072V8.33333ZM11.2656 8.33333H4.8177V10.2266H11.2656V8.33333ZM12.6072 11.5614H19.0551V13.4546H12.6072V11.5614Z" fill="#65A062"/>
</g>
<defs>
<clipPath id="clip0_13399_93529">
<rect width="40" height="40" fill="white"/>
</clipPath>
</defs>
</svg>
