<svg width="40" height="40" viewBox="0 0 40 40" fill="none" xmlns="http://www.w3.org/2000/svg">
<mask id="mask0_13663_101902" style="mask-type:luminance" maskUnits="userSpaceOnUse" x="0" y="0" width="40" height="40">
<path d="M40 0H0V40H40V0Z" fill="white"/>
</mask>
<g mask="url(#mask0_13663_101902)">
<path d="M32 15.5V19H34.5H38.9982V37.3305C38.9982 38.251 38.252 38.9972 37.3315 38.9972H19.0934C18.173 38.9972 17.4268 38.251 17.4268 37.3305V14.0924C17.4268 13.172 18.173 12.4258 19.0934 12.4258H32V15.5ZM32 12.4258L38.9982 19H32V12.4258Z" fill="#EFF6EE"/>
<path d="M32 19V15.5V12.4258M32 19H34.5H38.9982M32 19H38.9982M32 19V12.4258M38.9982 19V37.3305C38.9982 38.251 38.252 38.9972 37.3315 38.9972H19.0934C18.173 38.9972 17.4268 38.251 17.4268 37.3305V14.0924C17.4268 13.172 18.173 12.4258 19.0934 12.4258H32M38.9982 19L32 12.4258" stroke="#65A062" stroke-width="2"/>
<path d="M21.619 1H2.66667C1.74619 1 1 1.74619 1 2.66667V25.9047C1 26.8252 1.74619 27.5714 2.66667 27.5714H21.619C22.5395 27.5714 23.2857 26.8252 23.2857 25.9047V2.66667C23.2857 1.74619 22.5395 1 21.619 1Z" fill="white" stroke="#65A062" stroke-width="2"/>
<path d="M8.66602 18.668L6.66602 20.668L8.66602 22.668" stroke="#65A062" stroke-width="1.43"/>
<path d="M15.666 18.668L17.666 20.668L15.666 22.668" stroke="#65A062" stroke-width="1.43"/>
<path d="M13.3343 17.3359L11.001 24.0026" stroke="#65A062" stroke-width="1.43"/>
<path d="M27.8598 31.4258H22.1455V32.8544H27.8598V31.4258Z" fill="#65A062"/>
<path d="M6.42676 31.4258V36.4258H12.4982M12.4982 36.4258L9.99819 33.9258M12.4982 36.4258L9.99819 38.9258" stroke="#65A062" stroke-width="2"/>
<path d="M34.2884 34.2852H22.1455V35.7137H34.2884V34.2852Z" fill="#65A062"/>
<path d="M30.7098 31.4258H29.2812V32.8544H30.7098V31.4258Z" fill="#65A062"/>
<path d="M1.33301 4H17.9997C18.3679 4 18.6663 4.29848 18.6663 4.66667V10C18.6663 10.3682 18.3679 10.6667 17.9997 10.6667H1.33301V4Z" fill="#65A062"/>
<path d="M6.55027 9.33203H6.07156V7.57735H4.48086V9.33203H4V5.33203H4.48086V7.01186H6.07156V5.33203H6.55027V9.33203Z" fill="white"/>
<path d="M8.59413 9.33203H8.11327V5.89752H7.13867V5.33203H9.56658V5.89752H8.59413V9.33203Z" fill="white"/>
<path d="M10.6027 9.33203H10.1562V5.33203H10.7186L11.7041 8.37015H11.7406L12.728 5.33203H13.2905V9.33203H12.844V6.4436H12.8138L11.9058 9.21561H11.5408L10.6328 6.4436H10.6027V9.33203Z" fill="white"/>
<path d="M16.0004 8.761V9.33203H14.0684V5.33203H14.5492V8.761H16.0004Z" fill="white"/>
</g>
</svg>
