<svg width="40" height="40" viewBox="0 0 40 40" fill="none" xmlns="http://www.w3.org/2000/svg">
<g clip-path="url(#clip0_12250_47681)">
<mask id="mask0_12250_47681" style="mask-type:luminance" maskUnits="userSpaceOnUse" x="0" y="0" width="40" height="40">
<path d="M40 0H0V40H40V0Z" fill="white"/>
</mask>
<g mask="url(#mask0_12250_47681)">
<path d="M32 19H38.9974V37.2942C38.9974 38.2147 38.2512 38.9609 37.3308 38.9609H19.0937C18.1732 38.9609 17.427 38.2147 17.427 37.2942V14.0573C17.427 13.1368 18.1732 12.3906 19.0937 12.3906H32V19ZM32 12.3906L38.9974 19H32V12.3906Z" fill="#F9ECEC"/>
<path d="M38.9974 19H32V12.3906M38.9974 19V37.2942C38.9974 38.2147 38.2512 38.9609 37.3308 38.9609H19.0937C18.1732 38.9609 17.427 38.2147 17.427 37.2942V14.0573C17.427 13.1368 18.1732 12.3906 19.0937 12.3906H32M38.9974 19L32 12.3906" stroke="#C64646" stroke-width="2"/>
<path d="M27.1411 30.6719H21.427V32.1004H27.1411V30.6719Z" fill="#C64646"/>
<path d="M33.5693 33.5391H21.427V34.9676H33.5693V33.5391Z" fill="#C64646"/>
<path d="M30.0013 30.6719H28.5728V32.1004H30.0013V30.6719Z" fill="#C64646"/>
<path d="M5.625 31.25V35.625H10.9375M10.9375 35.625L8.75 33.4375M10.9375 35.625L8.75 37.8125" stroke="#C64646" stroke-width="2"/>
<path d="M23.3335 1.33594H1.3335V20.0026H23.3335L24.0002 18.6693V2.0026L23.3335 1.33594Z" fill="white"/>
<path d="M1 15.7108L6.78227 9.92851C8.21419 8.49659 10.5358 8.49659 11.9677 9.92851L13.5196 11.4804M1 15.7108L1 2.66666C1 1.74619 1.74619 1 2.66667 1L22.3333 1C23.2538 1 24 1.74619 24 2.66667V17.2892M1 15.7108V18.5833C1 19.5038 1.74619 20.25 2.66666 20.25H22.3333C23.2538 20.25 24 19.5038 24 18.5833V17.2892M24 17.2892L19.3035 12.5927C18.6526 11.9419 17.5974 11.9419 16.9465 12.5927L12.5821 16.9571" stroke="#C64646" stroke-width="2"/>
<path d="M18.5 7C19.3284 7 20 6.32843 20 5.5C20 4.67157 19.3284 4 18.5 4C17.6716 4 17 4.67157 17 5.5C17 6.32843 17.6716 7 18.5 7Z" fill="#F9ECEC" stroke="#C64646" stroke-width="2"/>
</g>
</g>
<defs>
<clipPath id="clip0_12250_47681">
<rect width="40" height="40" fill="white"/>
</clipPath>
</defs>
</svg>
