<svg width="30" height="30" viewBox="0 0 30 30" fill="none" xmlns="http://www.w3.org/2000/svg">
<g clip-path="url(#clip0_522_9802)">
<path d="M2.55469 22.7578V26.3785H6.95124M6.95124 26.3785L5.14089 24.5682M6.95124 26.3785L5.14089 28.1888" stroke="#C64646"/>
<path d="M13.5 11C13.5 10.1716 14.1716 9.5 15 9.5H24.1722L29.569 14.8968V27.6897C29.569 28.5181 28.8974 29.1897 28.069 29.1897H15C14.1716 29.1897 13.5 28.5181 13.5 27.6897V11Z" fill="#F9ECEC" stroke="#C64646"/>
<rect x="16.5195" y="22.9648" width="4.13793" height="1.03448" fill="#C64646"/>
<rect x="16.5195" y="25.0352" width="8.7931" height="1.03448" fill="#C64646"/>
<rect x="21.6914" y="22.9648" width="1.03448" height="1.03448" fill="#C64646"/>
<rect x="20.1895" y="0.5" width="16.5862" height="19.6897" rx="1.5" transform="rotate(90 20.1895 0.5)" fill="white" stroke="#C64646"/>
<path d="M4.5 8.5L4.48828 5.94787M4.48828 5.94787V3.87891H6.55725C7.12858 3.87891 7.59173 4.34206 7.59173 4.91339V4.91339C7.59173 5.48472 7.12858 5.94787 6.55725 5.94787H4.48828Z" stroke="#C64646"/>
<rect x="3.62305" y="12.4141" width="1.03448" height="2.58621" fill="#C64646"/>
<rect x="8.79492" y="12.9316" width="1.03448" height="2.06897" fill="#C64646"/>
<rect x="6.20898" y="10.3438" width="1.03448" height="4.65517" fill="#C64646"/>
<path fill-rule="evenodd" clip-rule="evenodd" d="M18.105 12.155C18.105 10.2982 16.5997 8.79297 14.7429 8.79297V12.155H18.105Z" fill="#F9ECEC"/>
<path d="M17.605 12.155C17.605 13.7357 16.3236 15.0171 14.7429 15.0171C13.1623 15.0171 11.8809 13.7357 11.8809 12.155C11.8809 10.5744 13.1623 9.29297 14.7429 9.29297C16.3236 9.29297 17.605 10.5744 17.605 12.155Z" stroke="#C64646"/>
<line x1="14.5" y1="9" x2="14.5" y2="12" stroke="#C64646"/>
<path d="M14 12.5H17.5" stroke="#C64646"/>
</g>
<defs>
<clipPath id="clip0_522_9802">
<rect width="30" height="30" fill="white"/>
</clipPath>
</defs>
</svg>
