<svg width="40" height="40" viewBox="0 0 40 40" fill="none" xmlns="http://www.w3.org/2000/svg">
<g clip-path="url(#clip0_13529_111385)">
<path d="M32.0791 16.5V18.7H33H38.9995V37.9977C38.9995 38.5499 38.5518 38.9977 37.9995 38.9977H18.4277C17.8754 38.9977 17.4277 38.5499 17.4277 37.9977V13.4258C17.4277 12.8735 17.8754 12.4258 18.4277 12.4258H32.0791V16.5ZM32.0791 12.4258L38.9995 18.7H32.0791V12.4258Z" fill="#EAF0FA"/>
<path d="M32.0791 18.7V16.5V12.4258M32.0791 18.7H33H38.9995M32.0791 18.7H38.9995M32.0791 18.7V12.4258M38.9995 18.7V37.9977C38.9995 38.5499 38.5518 38.9977 37.9995 38.9977H18.4277C17.8754 38.9977 17.4277 38.5499 17.4277 37.9977V13.4258C17.4277 12.8735 17.8754 12.4258 18.4277 12.4258H32.0791M38.9995 18.7L32.0791 12.4258" stroke="#2E64C9" stroke-width="2"/>
<path d="M22.2861 1H2C1.44772 1 1 1.44772 1 2V26.5719C1 27.1242 1.44772 27.5719 2 27.5719H22.2861C22.8384 27.5719 23.2861 27.1242 23.2861 26.5719V2C23.2861 1.44772 22.8384 1 22.2861 1Z" fill="white" stroke="#2E64C9" stroke-width="2"/>
<path d="M27.8589 30.4297H22.1445V32.4297H27.8589V30.4297Z" fill="#2E64C9"/>
<path d="M6.42773 31.4258V36.4259H12.4993M12.4993 36.4259L9.99922 33.9258M12.4993 36.4259L9.99922 38.9259" stroke="#2E64C9" stroke-width="2"/>
<path d="M10.7144 15H5V17H10.7144V15Z" fill="#2E64C9"/>
<path d="M13.5716 18.5703H5V20.5703H13.5716V18.5703Z" fill="#2E64C9"/>
<path d="M34.2875 34.2812H22.1445V36.2812H34.2875V34.2812Z" fill="#2E64C9"/>
<path d="M30.7137 30.4297H29.2852V32.4297H30.7137V30.4297Z" fill="#2E64C9"/>
<path d="M6.14928 10.2813L4.57031 5.28125H5.75454L7.33351 10.2813H6.14928Z" fill="#2E64C9"/>
<path d="M9.30749 10.2813L7.72852 5.28125H8.91275L10.4918 10.2813H9.30749Z" fill="#2E64C9"/>
<path d="M7.33267 10.2813L8.91165 5.28125H7.72742L6.14844 10.2813H7.33267Z" fill="#2E64C9"/>
<path d="M10.4909 10.2813L12.0698 5.28125H10.8856L9.30664 10.2813H10.4909Z" fill="#2E64C9"/>
</g>
<defs>
<clipPath id="clip0_13529_111385">
<rect width="40" height="40" fill="white"/>
</clipPath>
</defs>
</svg>
